<svg xmlns="http://www.w3.org/2000/svg" xmlns:xlink="http://www.w3.org/1999/xlink" width="500" zoomAndPan="magnify" viewBox="0 0 375 374.999991" height="500" preserveAspectRatio="xMidYMid meet" version="1.0"><defs><g/><clipPath id="4579c7b885"><path d="M 141.398438 131 L 233.648438 131 L 233.648438 196.914062 L 141.398438 196.914062 Z M 141.398438 131 " clip-rule="nonzero"/></clipPath></defs><g clip-path="url(#4579c7b885)"><path fill="#000000" d="M 233.066406 174.441406 C 233.050781 174.5625 233.027344 174.683594 232.996094 174.800781 C 232.207031 177.765625 228.964844 180.042969 222.144531 182.410156 C 217.328125 184.082031 211.503906 185.519531 206.824219 186.675781 C 206.027344 186.875 205.265625 187.0625 204.546875 187.242188 C 198.152344 188.84375 193.550781 190.464844 189.386719 191.992188 L 188.390625 192.363281 C 183.285156 194.257812 178.875 195.898438 171.976562 196.65625 C 170.695312 196.796875 168.933594 196.902344 166.9375 196.902344 C 162.257812 196.902344 156.292969 196.3125 152.21875 194.1875 C 146.824219 191.375 142.921875 186.578125 142.027344 181.675781 C 141.398438 178.21875 142.300781 174.890625 144.574219 172.277344 C 144.976562 171.746094 145.464844 171.324219 146.011719 171.027344 C 146.0625 170.949219 146.109375 170.871094 146.160156 170.792969 C 146.621094 170.023438 147.203125 169.316406 147.890625 168.683594 C 150.070312 166.683594 153.046875 165.617188 156.488281 164.386719 C 157.574219 163.996094 158.691406 163.597656 159.835938 163.152344 C 160.101562 162.765625 160.4375 162.425781 160.835938 162.15625 C 161.097656 161.976562 161.375 161.835938 161.660156 161.734375 C 161.585938 160.867188 161.804688 159.96875 162.339844 159.199219 C 163.324219 157.785156 165.042969 157.261719 166.574219 157.792969 C 167.152344 157.265625 167.738281 156.726562 168.332031 156.179688 C 168.429688 155.648438 168.640625 155.125 168.96875 154.652344 C 169.648438 153.683594 170.671875 153.128906 171.75 153.046875 L 173.671875 151.28125 C 173.839844 150.738281 174.132812 150.222656 174.542969 149.78125 C 175.101562 149.183594 175.800781 148.800781 176.542969 148.648438 C 177.332031 147.921875 178.121094 147.203125 178.898438 146.488281 C 179.078125 145.941406 179.378906 145.425781 179.800781 144.992188 C 180.339844 144.441406 181 144.082031 181.703125 143.929688 C 182.484375 143.210938 183.253906 142.511719 184.003906 141.832031 C 184.101562 141.398438 184.28125 140.972656 184.539062 140.578125 C 185.191406 139.585938 186.199219 138.988281 187.28125 138.867188 C 187.558594 138.617188 187.828125 138.371094 188.09375 138.132812 C 188.25 137.71875 188.472656 137.328125 188.765625 136.976562 C 189.308594 136.328125 190.023438 135.894531 190.8125 135.710938 C 195.125 131.90625 195.609375 131.703125 196.160156 131.472656 C 197.492188 130.914062 199.121094 130.988281 203.488281 133.007812 C 205.867188 134.109375 208.539062 135.578125 210.292969 136.75 C 211.890625 137.816406 213.453125 139.019531 213.453125 140.945312 C 213.453125 141.472656 213.382812 142.097656 212.902344 143.078125 C 214.445312 142.824219 215.359375 142.273438 215.757812 141.96875 C 216.582031 139.613281 218.792969 137.128906 221.566406 136.589844 C 222.761719 136.355469 225.785156 136.199219 227.976562 139.785156 C 228.0625 139.921875 228.132812 140.0625 228.195312 140.210938 C 232.980469 151.691406 231.25 160.617188 230.132812 164.269531 C 231.515625 166.382812 233.644531 170.402344 233.066406 174.441406 Z M 233.066406 174.441406 C 233.050781 174.5625 233.027344 174.683594 232.996094 174.800781 C 232.207031 177.765625 228.964844 180.042969 222.144531 182.410156 C 217.328125 184.082031 211.503906 185.519531 206.824219 186.675781 C 206.027344 186.875 205.265625 187.0625 204.546875 187.242188 C 198.152344 188.84375 193.550781 190.464844 189.386719 191.992188 L 188.390625 192.363281 C 183.285156 194.257812 178.875 195.898438 171.976562 196.65625 C 170.695312 196.796875 168.933594 196.902344 166.9375 196.902344 C 162.257812 196.902344 156.292969 196.3125 152.21875 194.1875 C 146.824219 191.375 142.921875 186.578125 142.027344 181.675781 C 141.398438 178.21875 142.300781 174.890625 144.574219 172.277344 C 144.976562 171.746094 145.464844 171.324219 146.011719 171.027344 C 146.0625 170.949219 146.109375 170.871094 146.160156 170.792969 C 146.621094 170.023438 147.203125 169.316406 147.890625 168.683594 C 150.070312 166.683594 153.046875 165.617188 156.488281 164.386719 C 157.574219 163.996094 158.691406 163.597656 159.835938 163.152344 C 160.101562 162.765625 160.4375 162.425781 160.835938 162.15625 C 161.097656 161.976562 161.375 161.835938 161.660156 161.734375 C 161.585938 160.867188 161.804688 159.96875 162.339844 159.199219 C 163.324219 157.785156 165.042969 157.261719 166.574219 157.792969 C 167.152344 157.265625 167.738281 156.726562 168.332031 156.179688 C 168.429688 155.648438 168.640625 155.125 168.96875 154.652344 C 169.648438 153.683594 170.671875 153.128906 171.75 153.046875 L 173.671875 151.28125 C 173.839844 150.738281 174.132812 150.222656 174.542969 149.78125 C 175.101562 149.183594 175.800781 148.800781 176.542969 148.648438 C 177.332031 147.921875 178.121094 147.203125 178.898438 146.488281 C 179.078125 145.941406 179.378906 145.425781 179.800781 144.992188 C 180.339844 144.441406 181 144.082031 181.703125 143.929688 C 182.484375 143.210938 183.253906 142.511719 184.003906 141.832031 C 184.101562 141.398438 184.28125 140.972656 184.539062 140.578125 C 185.191406 139.585938 186.199219 138.988281 187.28125 138.867188 C 187.558594 138.617188 187.828125 138.371094 188.09375 138.132812 C 188.25 137.71875 188.472656 137.328125 188.765625 136.976562 C 189.308594 136.328125 190.023438 135.894531 190.8125 135.710938 C 195.125 131.90625 195.609375 131.703125 196.160156 131.472656 C 197.492188 130.914062 199.121094 130.988281 203.488281 133.007812 C 205.867188 134.109375 208.539062 135.578125 210.292969 136.75 C 211.890625 137.816406 213.453125 139.019531 213.453125 140.945312 C 213.453125 141.472656 213.382812 142.097656 212.902344 143.078125 C 214.445312 142.824219 215.359375 142.273438 215.757812 141.96875 C 216.582031 139.613281 218.792969 137.128906 221.566406 136.589844 C 222.761719 136.355469 225.785156 136.199219 227.976562 139.785156 C 228.0625 139.921875 228.132812 140.0625 228.195312 140.210938 C 232.980469 151.691406 231.25 160.617188 230.132812 164.269531 C 231.515625 166.382812 233.644531 170.402344 233.066406 174.441406 Z M 233.066406 174.441406 " fill-opacity="1" fill-rule="nonzero"/></g><path fill="#000000" d="M 218.539062 143.542969 C 218.941406 141.140625 222.804688 137.269531 225.335938 141.40625 C 231.066406 155.148438 226.667969 164.753906 226.667969 164.753906 C 226.667969 164.753906 227.246094 176.136719 168.175781 189.035156 C 147.121094 190.371094 147.90625 176.628906 148.039062 174.492188 C 149.035156 169.023438 155.515625 168.488281 163.109375 165.152344 C 174.570312 154.746094 195.753906 135.003906 197.355469 134.335938 C 198.953125 133.667969 210.355469 139.746094 210.355469 140.945312 C 210.355469 142.144531 207.082031 145.808594 207.082031 145.808594 C 214.011719 147.410156 217.742188 144.742188 218.539062 143.542969 Z M 218.539062 143.542969 C 218.941406 141.140625 222.804688 137.269531 225.335938 141.40625 C 231.066406 155.148438 226.667969 164.753906 226.667969 164.753906 C 226.667969 164.753906 227.246094 176.136719 168.175781 189.035156 C 147.121094 190.371094 147.90625 176.628906 148.039062 174.492188 C 149.035156 169.023438 155.515625 168.488281 163.109375 165.152344 C 174.570312 154.746094 195.753906 135.003906 197.355469 134.335938 C 198.953125 133.667969 210.355469 139.746094 210.355469 140.945312 C 210.355469 142.144531 207.082031 145.808594 207.082031 145.808594 C 214.011719 147.410156 217.742188 144.742188 218.539062 143.542969 Z M 218.539062 143.542969 " fill-opacity="1" fill-rule="nonzero"/><path fill="#ffffff" d="M 162.550781 165.925781 C 161.835938 165.425781 162.515625 164.246094 163.238281 164.746094 C 163.792969 165.132812 164.359375 165.5 164.949219 165.828125 C 166.105469 166.476562 167.382812 167.019531 168.710938 167.152344 C 169.742188 167.253906 170.691406 167.082031 171.664062 166.753906 C 173.476562 166.136719 175.320312 165.332031 176.941406 164.304688 C 179.03125 162.984375 181.054688 161.539062 183.113281 160.164062 C 186.101562 158.175781 189.09375 156.199219 192.101562 154.238281 C 195.046875 152.320312 198 150.414062 200.984375 148.558594 C 202.855469 147.394531 204.734375 146.148438 206.738281 145.21875 C 207.074219 145.066406 207.46875 145.121094 207.667969 145.464844 C 207.84375 145.761719 207.757812 146.242188 207.425781 146.398438 C 207.269531 146.46875 207.117188 146.542969 206.96875 146.621094 C 204.75 147.757812 202.640625 149.125 200.53125 150.449219 C 197.4375 152.390625 194.371094 154.378906 191.316406 156.378906 C 188.363281 158.3125 185.417969 160.261719 182.484375 162.222656 C 180.335938 163.65625 178.238281 165.269531 175.917969 166.417969 C 174.945312 166.902344 173.945312 167.34375 172.929688 167.738281 C 172.054688 168.078125 171.171875 168.382812 170.234375 168.496094 C 167.449219 168.835938 164.769531 167.46875 162.550781 165.925781 Z M 225.078125 145.464844 C 217.902344 150.019531 211.417969 156.65625 209.988281 165.371094 C 209.585938 167.839844 209.609375 170.34375 210.140625 172.792969 C 210.328125 173.652344 211.644531 173.289062 211.457031 172.433594 C 210.570312 168.375 211.242188 164.082031 212.929688 160.320312 C 214.597656 156.597656 217.21875 153.40625 220.261719 150.726562 C 221.980469 149.210938 223.835938 147.867188 225.765625 146.640625 C 226.503906 146.171875 225.820312 144.992188 225.078125 145.464844 Z M 225.078125 145.464844 " fill-opacity="1" fill-rule="nonzero"/><path fill="#ffffff" d="M 174.175781 168.078125 C 174.777344 168.71875 173.816406 169.683594 173.210938 169.042969 C 170.734375 166.421875 168 164.054688 165.042969 161.992188 C 164.328125 161.492188 165.007812 160.3125 165.730469 160.8125 C 168.785156 162.941406 171.617188 165.371094 174.175781 168.078125 Z M 171.683594 157.425781 C 175.164062 159.59375 178.441406 162.199219 181.015625 165.414062 C 181.246094 165.703125 181.738281 165.65625 181.980469 165.414062 C 182.261719 165.128906 182.210938 164.738281 181.980469 164.449219 C 179.335938 161.152344 175.945312 158.472656 172.371094 156.25 C 171.625 155.785156 170.941406 156.964844 171.683594 157.425781 Z M 176.933594 152.945312 C 178.90625 154.023438 180.738281 155.347656 182.4375 156.8125 C 184.132812 158.273438 185.746094 159.875 187.101562 161.664062 C 187.324219 161.957031 187.6875 162.109375 188.035156 161.910156 C 188.320312 161.738281 188.5 161.269531 188.277344 160.976562 C 186.847656 159.089844 185.191406 157.390625 183.402344 155.847656 C 181.613281 154.3125 179.695312 152.898438 177.621094 151.769531 C 176.851562 151.347656 176.164062 152.527344 176.933594 152.945312 Z M 182.140625 148.210938 C 184.230469 149.34375 186.246094 150.625 188.054688 152.167969 C 189.859375 153.710938 191.449219 155.484375 192.800781 157.4375 C 193.296875 158.152344 194.476562 157.472656 193.976562 156.75 C 192.558594 154.699219 190.914062 152.820312 189.019531 151.203125 C 187.117188 149.582031 185.019531 148.222656 182.828125 147.035156 C 182.054688 146.617188 181.367188 147.792969 182.140625 148.210938 Z M 187.347656 143.207031 C 191.960938 145.539062 196.511719 148.714844 199.550781 152.972656 C 199.761719 153.269531 200.140625 153.414062 200.480469 153.214844 C 200.777344 153.042969 200.941406 152.585938 200.726562 152.285156 C 197.546875 147.832031 192.871094 144.472656 188.035156 142.03125 C 187.253906 141.636719 186.5625 142.8125 187.347656 143.207031 Z M 191.445312 140.050781 C 192.800781 140.308594 193.992188 140.976562 195.136719 141.71875 C 196.328125 142.492188 197.488281 143.320312 198.613281 144.191406 C 200.878906 145.945312 202.992188 147.890625 204.949219 149.984375 C 205.550781 150.625 206.511719 149.660156 205.914062 149.019531 C 203.878906 146.84375 201.671875 144.84375 199.316406 143.023438 C 198.148438 142.121094 196.945312 141.261719 195.703125 140.460938 C 194.503906 139.691406 193.21875 139.003906 191.808594 138.734375 C 190.949219 138.574219 190.582031 139.886719 191.445312 140.050781 Z M 149.984375 170.96875 C 149.984375 170.96875 153.785156 171.292969 156.316406 176.628906 C 158.847656 181.964844 175.769531 181.03125 181.5 178.363281 C 187.226562 175.695312 190.824219 180.503906 190.824219 180.503906 C 190.824219 180.503906 179.898438 190.550781 166.042969 189.125 C 152.183594 187.699219 148.988281 182.496094 148.988281 182.496094 L 147.121094 177.160156 C 147.121094 177.160156 147.253906 173.71875 149.984375 170.96875 Z M 149.984375 170.96875 " fill-opacity="1" fill-rule="nonzero"/><path fill="#ffffff" d="M 226.667969 164.753906 C 226.667969 164.753906 230.621094 169.644531 230 174.003906 C 228.84375 178.363281 212.980469 181.933594 203.792969 184.230469 C 187.09375 188.414062 182.558594 192.683594 171.105469 193.398438 C 166.128906 193.710938 158.296875 193.863281 153.648438 191.4375 C 146.351562 187.628906 142.183594 179.605469 146.988281 174.226562 C 149.144531 171.125 154.847656 180.40625 155.117188 184.410156 C 157.691406 185.921875 172.378906 188.382812 182.90625 183.164062 C 202.640625 173.382812 224.3125 169.824219 226.667969 164.753906 Z M 226.667969 164.753906 C 226.667969 164.753906 230.621094 169.644531 230 174.003906 C 228.84375 178.363281 212.980469 181.933594 203.792969 184.230469 C 187.09375 188.414062 183.4375 192.277344 171.636719 193.570312 C 166.683594 194.117188 158.296875 193.863281 153.648438 191.4375 C 146.351562 187.628906 142.183594 179.605469 146.988281 174.226562 C 149.144531 171.125 154.847656 180.40625 155.117188 184.410156 C 157.691406 185.921875 172.378906 188.382812 182.90625 183.164062 C 202.640625 173.382812 224.3125 169.824219 226.667969 164.753906 Z M 226.667969 164.753906 " fill-opacity="1" fill-rule="nonzero"/><g fill="#000000" fill-opacity="1"><g transform="translate(79.468103, 240.927875)"><g><path d="M 14.234375 -5.6875 L 23.28125 -3.09375 L 22.125 1.0625 L 11.28125 -1.984375 L 9.703125 -4.296875 L 10.859375 -16.71875 L 1.75 -16.078125 L 1.390625 -20.46875 L 11.28125 -21.15625 L 11.734375 -26.015625 L 16.078125 -25.59375 L 15.703125 -21.4375 L 26.109375 -22.171875 L 26.375 -17.875 L 15.296875 -17.046875 Z M 14.234375 -5.6875 "/></g></g></g><g fill="#000000" fill-opacity="1"><g transform="translate(106.406646, 240.927875)"><g><path d="M 4.8125 -2.5 L 2.765625 -4.84375 L 3.875 -20.703125 L 5.953125 -22.6875 L 21.296875 -23.328125 L 23.5625 -21.203125 L 24.03125 -3.75 L 21.71875 -1.53125 Z M 19.640625 -6 L 19.3125 -18.890625 L 8.078125 -18.4375 L 7.296875 -6.703125 Z M 19.640625 -6 "/></g></g></g><g fill="#000000" fill-opacity="1"><g transform="translate(132.374846, 240.927875)"><g><path d="M 2.3125 -3 L 4.4375 -23.328125 L 6.9375 -25.234375 L 21.765625 -22.828125 L 21.0625 -18.53125 L 8.546875 -20.5625 L 6.890625 -5.265625 L 22.3125 -7.109375 L 22.828125 -2.765625 L 4.671875 -0.640625 Z M 2.3125 -3 "/></g></g></g><g fill="#000000" fill-opacity="1"><g transform="translate(155.755456, 240.927875)"><g><path d="M 4.8125 -2.5 L 2.765625 -4.84375 L 3.875 -20.703125 L 5.953125 -22.6875 L 21.296875 -23.328125 L 23.5625 -21.203125 L 24.03125 -3.75 L 21.71875 -1.53125 Z M 19.640625 -6 L 19.3125 -18.890625 L 8.078125 -18.4375 L 7.296875 -6.703125 Z M 19.640625 -6 "/></g></g></g><g fill="#000000" fill-opacity="1"><g transform="translate(181.723655, 240.927875)"><g/></g></g><g fill="#000000" fill-opacity="1"><g transform="translate(192.443553, 240.927875)"><g><path d="M 14.234375 -5.6875 L 23.28125 -3.09375 L 22.125 1.0625 L 11.28125 -1.984375 L 9.703125 -4.296875 L 10.859375 -16.71875 L 1.75 -16.078125 L 1.390625 -20.46875 L 11.28125 -21.15625 L 11.734375 -26.015625 L 16.078125 -25.59375 L 15.703125 -21.4375 L 26.109375 -22.171875 L 26.375 -17.875 L 15.296875 -17.046875 Z M 14.234375 -5.6875 "/></g></g></g><g fill="#000000" fill-opacity="1"><g transform="translate(219.382096, 240.927875)"><g><path d="M 4.8125 -2.5 L 2.765625 -4.84375 L 3.875 -20.703125 L 5.953125 -22.6875 L 21.296875 -23.328125 L 23.5625 -21.203125 L 24.03125 -3.75 L 21.71875 -1.53125 Z M 19.640625 -6 L 19.3125 -18.890625 L 8.078125 -18.4375 L 7.296875 -6.703125 Z M 19.640625 -6 "/></g></g></g><g fill="#000000" fill-opacity="1"><g transform="translate(245.350295, 240.927875)"><g><path d="M 2.3125 -3 L 4.4375 -23.328125 L 6.9375 -25.234375 L 21.765625 -22.828125 L 21.0625 -18.53125 L 8.546875 -20.5625 L 6.890625 -5.265625 L 22.3125 -7.109375 L 22.828125 -2.765625 L 4.671875 -0.640625 Z M 2.3125 -3 "/></g></g></g><g fill="#000000" fill-opacity="1"><g transform="translate(268.730905, 240.927875)"><g><path d="M 4.8125 -2.5 L 2.765625 -4.84375 L 3.875 -20.703125 L 5.953125 -22.6875 L 21.296875 -23.328125 L 23.5625 -21.203125 L 24.03125 -3.75 L 21.71875 -1.53125 Z M 19.640625 -6 L 19.3125 -18.890625 L 8.078125 -18.4375 L 7.296875 -6.703125 Z M 19.640625 -6 "/></g></g></g></svg>